<svg width="260" height="260" viewBox="0 0 260 260" fill="none" xmlns="http://www.w3.org/2000/svg">
<rect width="260" height="260" fill="white"/>
<path d="M169.646 119.946V80.5435H175.327C186.991 80.5435 190.189 81.5567 205.088 86.5101L213.215 71.6874H152.715C155.499 78.0668 157.682 83.3204 157.682 100.62V156.308C157.682 169.555 155.951 174.771 153.769 181H174.199C171.866 175.484 169.684 170.418 169.684 157.434V130.115H173.898C182.062 130.115 182.476 130.265 199.708 134.881L206.668 120.508C186.125 120.809 173.597 120.659 169.646 119.946Z" fill="black"/>
<path d="M117.99 136.019L91.0136 71L60.4456 132.236C44.7687 162.273 44.3571 162.985 31 180.963H51.2789C51.8401 173.734 53.5986 168.079 61.7177 151.674L67.8163 139.352C85.1769 139.502 93.5952 139.652 106.803 140.064L113.313 155.869C115.221 160.513 117.803 166.918 117.803 174.595C117.803 175.345 117.803 176.768 116.793 181H141C135.5 173.322 133.741 170.251 132.731 168.566C129.963 163.884 120.833 143.434 117.952 136.056L117.99 136.019ZM72.4558 128.603L88.6939 94.6329L102.912 129.764L72.4558 128.603Z" fill="black"/>
</svg>
