<?xml version="1.0" encoding="UTF-8"?>
<svg width="42px" height="32px" viewBox="0 0 42 32" version="1.1" xmlns="http://www.w3.org/2000/svg"  xmlns:xlink="http://www.w3.org/1999/xlink">
    <title>Logo</title>
    <g id="Symbols" stroke="none" stroke-width="1" fill="none" fill-rule="evenodd">
        <g id="Desktop/Top---Black" transform="translate(-92.000000, -44.000000)" fill="#141414">
            <g id="Top">
                <path d="M121.855422,45.256467 C121.791991,45.8823996 121.604967,46.4270844 121.296313,46.8905215 C120.987331,47.3546085 120.574375,47.8937685 120.058099,48.5076764 C119.542149,49.1225592 116.768183,48.6756967 117.076511,47.482005 C117.224625,46.908396 117.530991,46.3637111 118.069501,45.8648501 C118.607358,45.3666389 119.011813,45.0016741 119.283193,44.7693056 C119.554247,44.538237 119.805028,44.3468174 120.035865,44.1956966 C120.265721,44.0452258 120.495577,43.9815276 120.724125,44.0046019 C121.00368,44.0046019 121.24923,44.1381732 121.460776,44.4043408 C121.671341,44.6711583 121.803107,44.9552004 121.855422,45.256467 M117.441076,54.6106813 C116.857118,56.1407386 115.891592,57.8219168 114.543845,59.6525907 C113.195771,61.4842397 111.916686,63.2115665 110.706918,64.8339213 C109.832615,66.0857864 104.602493,72.3594115 105.719731,73.1858635 C106.722857,73.9278178 112.844611,68.6980636 113.24972,67.6203936 C114.983612,67.2544538 115.704241,68.072456 115.74642,67.9720338 C114.442486,71.0597728 106.673159,78.0061291 103.362645,75.4435756 C101.516604,74.0142654 103.655605,69.5050161 104.223542,68.4855195 C104.791479,67.465048 105.868499,65.8368433 107.45493,63.5996057 C109.040708,61.3626931 110.63989,59.2301025 112.251498,57.2011841 C113.863105,55.1729156 114.653051,54.1238448 114.621335,54.0542968 C114.492838,53.8921263 115.658466,52.4199173 116.405253,52.4199173 C116.540289,52.4429917 116.662901,52.5242394 116.773088,52.6630106 C116.883602,52.8024317 116.891122,52.9821517 116.797937,53.2021705 C116.703771,53.4228394 116.802515,53.6428582 117.09384,53.8625521 C117.384511,54.083546 117.500583,54.332489 117.441076,54.6106813 Z M133.997116,53.9316176 C133.486587,55.3802038 132.329668,57.2485656 130.526682,59.537358 C128.72305,61.8268053 127.685534,63.1810893 127.413488,63.6015199 C127.14112,64.0219504 126.893278,64.4371419 126.669639,64.8451298 C126.445678,65.2544274 125.826396,67 125.113204,67 C125.044144,67 124.957012,66.8654229 124.852131,66.5972511 C124.74725,66.3284244 124.540069,66.1358908 124.230912,66.0189954 C123.921432,65.9024275 123.696825,65.7098938 123.55806,65.4410672 C123.418326,65.1725679 123.41768,64.8166427 123.557414,64.3723092 C123.640674,63.9754542 123.767176,63.5900595 123.937568,63.2161252 C124.107637,62.8428458 124.336116,62.4103 124.623652,61.9197977 C124.643337,61.8268053 124.59138,61.7973359 124.469396,61.8323717 C124.346443,61.8674076 124.015341,62.130013 123.475446,62.6205153 C122.935227,63.111345 122.180406,63.8002748 121.212273,64.6876321 C120.123446,65.5985649 119.039137,66.1591389 117.959346,66.3693542 C117.668583,66.439426 117.437845,66.3575664 117.268744,66.1241031 C117.098353,65.8909671 116.936997,65.645716 116.784032,65.3886771 C116.339659,65.2017099 115.972091,65.0324244 115.681652,64.8804931 C115.390889,64.7288893 115.256964,64.489532 115.279554,64.1620939 C115.71005,62.1070923 116.559103,60.1680038 117.827357,58.3461382 C119.094966,56.5242725 120.27383,55.0995893 121.36427,54.0720885 C122.454388,53.0442603 123.167257,52.4427565 123.503199,52.2675771 C123.838818,52.0923977 124.110864,52.0049717 124.318044,52.0049717 C124.599125,51.9817236 124.880207,52.0400076 125.161934,52.1798237 C125.443338,52.3202946 125.656004,52.4309687 125.800256,52.5128282 C125.943862,52.5946878 126.155561,52.6297236 126.43406,52.6179359 C126.712883,52.6064755 126.844872,52.6352901 126.830027,52.7053619 C126.575731,53.1493679 126.114576,53.7037207 125.445597,54.3697298 C124.776294,55.0354114 123.984361,55.987274 123.069152,57.2249901 C122.153944,58.463361 120.942164,60.0979321 119.434458,62.130013 C119.390569,62.3402283 119.472215,62.4453359 119.679396,62.4453359 C119.909166,62.4453359 121.046722,61.6044748 123.091097,59.9227527 C125.135471,58.2410305 128.106026,55.7885191 132.004376,52.5655458 C132.21801,52.4250748 132.611718,52.5773336 133.186789,53.0206848 C133.761214,53.4650183 134.031324,53.7685534 133.997116,53.9316176 Z M106.566104,55.5128369 C106.586944,55.3061805 106.497395,55.1571433 106.29648,55.0650814 C106.095239,54.9736633 105.888136,54.9392206 105.674196,54.9620751 C104.345614,55.3061805 103.044385,55.9554422 101.771487,56.9079286 C100.497611,57.8610588 99.101298,59.0604385 97.5828723,60.5070333 C96.7443679,61.3800117 96.1601827,62.04569 95.8293398,62.5047119 C95.4981713,62.9643775 95.2907432,63.3889566 95.2067299,63.779093 C95.1871919,63.8711549 95.1754692,64.0321022 95.1728641,64.2612913 C95.2259422,64.445415 96.3099738,63.9400404 98.4256099,62.7461329 C100.540269,61.5522254 102.403214,60.1799883 104.01412,58.6300653 C105.624699,57.0801423 106.457668,56.179159 106.512374,55.9261497 C106.55145,55.7429916 106.569035,55.6048988 106.566104,55.5128369 M111.727709,54.0321213 C111.759295,54.1010067 111.687331,54.2445718 111.513117,54.4624945 C111.338252,54.681061 111.138314,54.9907237 110.91265,55.3924483 C110.686661,55.7944948 109.811686,56.9713418 108.289352,58.9229895 C106.765717,60.8746371 104.118973,64.0968031 103.603497,64.9160251 C103.087694,65.7352471 102.912504,66.368414 102.1515,66.6671323 C101.84801,66.7817268 100.848969,66.6272174 100.848969,65.8221587 C100.848969,64.9974645 101.841823,63.4082703 101.867223,63.3677116 C100.739556,65.1513301 97.7147536,66.9487902 94.7622412,66.9822672 C94.4600539,66.9858081 93.0490871,67.2069497 92.3011086,65.9831061 C91.9448664,65.3998328 91.957566,64.3076441 92.0708862,63.779093 C92.140246,63.4578421 92.2193748,63.1420634 92.3092494,62.8320788 C92.3991241,62.5217723 92.7224774,61.8280892 93.2802864,60.7484543 C93.8374441,59.6691414 94.9589234,58.3432571 96.6443986,56.7701577 C98.3292226,55.197702 99.9557584,54.0092668 101.522378,53.2051738 C103.088997,52.4017246 104.324773,52 105.231009,52 C105.857853,52 106.398403,52.1322987 106.852986,52.3959305 C107.306918,52.660206 107.586311,53.0905793 107.690188,53.6873721 C107.673581,53.8714958 107.66544,54.0723581 107.66544,54.2902808 C107.664463,54.5085254 107.782994,54.6060595 108.02038,54.583205 C108.261999,54.5371741 108.546602,54.3765486 108.873212,54.1010067 C109.19917,53.825143 109.45121,53.6529293 109.62868,53.5840439 C110.256174,53.5840439 110.710758,53.6014262 110.994058,53.635547 C111.277033,53.6699897 111.520932,53.8026104 111.727709,54.0321213" id="Logo"></path>
            </g>
        </g>
    </g>
</svg>
