<svg version="1.1" id="Lag_1" xmlns="http://www.w3.org/2000/svg" xmlns:xlink="http://www.w3.org/1999/xlink" x="0px" y="0px" viewBox="0 0 530 530" style="enable-background:new 0 0 530 530;" xml:space="preserve">
<style type="text/css">
	.st0{fill-rule:evenodd;clip-rule:evenodd;fill:#00B9EA;}
	.st1{fill-rule:evenodd;clip-rule:evenodd;fill:#FFFFFF;}
</style>
<path id="Path_1" class="st0" d="M0.1,529.9H530V0H0.1V529.9z"></path>
<path id="Path_2" class="st1" d="M114.9,398.4c0-13.3-6.2-21.3-25.3-21.3c-2.8-0.1-5.6,0-8.4,0.3v39.7c4.6,1.2,9.3,1.8,14.1,1.7
	C107.2,418.9,115,412.9,114.9,398.4L114.9,398.4z M81.2,371.5c1.3,0.1,4.3,0.3,7.8,0.3c10.1,0,21-3.1,21-19.5c0-15.7-9.6-18-21.6-18
	c-2.4,0-4.8,0.2-7.1,0.7V371.5z M45.2,424.5v-5.2l14.4-3.3v-78.8l-14.4-3.3v-5.3h47.9c32.4,0,39.1,13.1,39.1,22.6
	c0,14.2-19.3,22.5-28.5,22.6c10.3,0.8,34.5,4.4,34.5,23.9c0,16.5-16.1,26.9-43.2,26.9L45.2,424.5L45.2,424.5z M210.1,290.6h19.3
	l7-23.5c4-13.9,27-38.8,34.8-38.8c3.7,0,0,6-8,32.1c-4.1,13.4-9.8,30.2-9.8,30.2h19.3l6.9-23.5c4-13.9,27-38.8,34.8-38.8
	c4.2,0-1.8,10.4-11.3,41.8c-0.8,2.9-1.3,5.9-1.5,9c0,2.8,0.9,13.2,11.4,13.2c6.3,0,13.4-3,21.7-11.7l-2.5-3.3
	c-6.4,4.1-8.3,3.9-9.4,3.9c-3.3,0-3.5-2.8-2.9-4.3c8.2-25.4,15.1-45.6,15.3-47.3c0.6-5.6-3.4-10.7-9-11.3c-0.6-0.1-1.3-0.1-1.9,0
	c-12.8,0-31.6,17.3-41.5,33.6c3.4-7.4,6.2-15.1,8.4-22.9c0.6-5.3-3.3-10-8.6-10.6c-0.6-0.1-1.2-0.1-1.8,0
	c-11.3,0-29.8,14.9-41.3,33.6c2.9-7,5-14.3,6-21.8c0.8-5.6-3.1-10.9-8.8-11.7c-0.7-0.1-1.4-0.1-2.1-0.1c-6.3,0-13.4,3-21.7,11.7
	l2.5,3.3c2.9-2.4,6.5-3.9,10.2-4.3c3.3,0,2.6,3.2,2.1,4.7C219.7,258.9,210.2,290.6,210.1,290.6L210.1,290.6z M162.2,270.1
	c-0.9,2.9-1.4,5.9-1.5,9c0,2.8,0.9,13.2,11.4,13.2c6.3,0,13.4-3,21.7-11.7l-2.5-3.3c-6.4,4.1-8.3,3.9-9.4,3.9
	c-3.3,0-3.5-2.8-2.9-4.3c10.5-31.9,21-63.8,31.5-95.7l-36.6,5.8v4.3l13.6,0.6C187.7,191.8,171.9,240.8,162.2,270.1L162.2,270.1z
	 M350,424.5h41.5v-5.2L379,416c0.3-18.1,0.1-30.1,0.1-39.1c0-14.3-5.8-25.2-24.1-25.2c-10.4,0.1-20.2,5-26.4,13.4v-13.5
	c0,0-22.6,3.3-31.8,4.4v4.1l11.9,3.6V416l-11.9,3.3v5.2h44.5v-5.2l-12.5-3.3v-44.4c4.3-6.8,11.6-11.1,19.6-11.6
	c8.2,0,10.8,5.4,10.8,17l0.1,39l-9.2,3.3L350,424.5z M178.4,416v-46.1c3.6-5.6,9.2-9.6,15.7-11c-1.7,6.7,0.2,13.9,5,18.9
	c7,0,12.8-5.3,13.4-12.2c0.8-6.9-4.2-13.1-11-13.9c-1-0.1-2-0.1-3,0c-8.3,0.4-15.8,4.9-20.3,11.9v-12l-31.7,4.4v4.1l11.9,3.6V416
	l-12.5,3.3v5.2h48.9v-5.2L178.4,416L178.4,416z M456.6,409.9c-4.3,5.2-10.5,8.5-17.2,9.1c-14.2,0-19.5-12.4-19.5-28
	c0-21.7,9.8-33.6,24.4-33.6c4.5,0,8.8,1.4,12.4,4.1V409.9L456.6,409.9z M489.2,417l-12.7-2.5v-99.5l-31.8,4.6v4l11.9,3.7V355
	c-4.6-2.1-9.5-3.2-14.6-3.3c-25.1,0.2-43.7,15.3-43.7,40.2c0,22.7,16,33.9,36.2,33.9c8.4-0.1,16.4-3.5,22.3-9.5l2,9.6l30.3-3.8
	C489.2,422.1,489.2,417,489.2,417z M116.8,250.6H87.4l29.5-41.1V250.6L116.8,250.6z M138.6,282.3v-87.6h-17.7l-66.6,87.6l-9.2,3.4
	l-1.6,5.1h32.9l1.6-5.1l-13.3-3.3l17.1-24h35v24l-9.2,3.3l-1.6,5.1h44.2l1.6-5.1L138.6,282.3L138.6,282.3z M257.2,392.3
	c-14.2,0.3-19.6,4.8-19.5,14.3c-0.4,5.6,3.8,10.4,9.4,10.7c0.2,0,0.5,0,0.7,0c4.8-0.2,9.2-2.8,11.7-7v-18.1H257.2L257.2,392.3z
	 M253,351.7c18.2-0.2,26.2,7.8,26.3,22.1c0.1,11.7-0.4,22.2-0.3,35.2c0.1,9.6,4.7,8.8,12.7,5.9l1.6,3.6c-5.6,4.4-12.5,6.9-19.6,6.9
	c-7.1,0.1-12.7-3-13.2-10.2c-5.2,6.6-13.1,10.5-21.4,10.8c-12.5,0.1-22.4-6.3-22.4-16.8c-0.1-13,14.7-20.7,40-21.2h2.7v-13
	c-0.1-15.7-11.2-19.6-22.6-16.4c1.9,7.1,1.1,14.7-2.1,21.3c0,0-13.7,1.4-13.8-11C220.8,358.9,238.3,351.9,253,351.7L253,351.7z"></path>
</svg>
