<svg  viewBox="0 0 95 95" fill="none" xmlns="http://www.w3.org/2000/svg">
<rect width="95" height="95" fill="black"/>
<g clip-path="url(#clip0)">
<path d="M11 41.1925H16.2765C17.5756 41.1925 18.6021 41.5453 19.2436 42.2029C19.7568 42.7161 20.0295 43.3576 20.0295 44.1274V44.1595C20.0295 45.4426 19.3398 46.1643 18.5379 46.6134C19.8531 47.1105 20.671 47.8804 20.671 49.404V49.4361C20.671 51.521 18.987 52.5475 16.4209 52.5475H11V41.1925ZM15.7473 45.7954C16.8539 45.7954 17.5436 45.4426 17.5436 44.5925V44.5605C17.5436 43.8067 16.9662 43.3897 15.9077 43.3897H13.4378V45.7954H15.7473ZM16.4049 50.3663C17.5115 50.3663 18.1691 49.9814 18.1691 49.1313V49.0993C18.1691 48.3294 17.6077 47.8643 16.3247 47.8643H13.4378V50.3663H16.4049V50.3663ZM21.5531 46.9181V46.886C21.5531 43.6463 24.1032 41 27.5995 41C31.1118 41 33.6298 43.6142 33.6298 46.8379V46.87C33.6298 50.0936 31.0798 52.7399 27.5674 52.7399C24.0551 52.7399 21.5531 50.1417 21.5531 46.9181ZM31.0156 46.9181V46.886C31.0156 44.9454 29.5882 43.3095 27.5674 43.3095C25.5466 43.3095 24.1513 44.8973 24.1513 46.8539V46.886C24.1513 48.8266 25.5787 50.4625 27.5995 50.4625C29.6203 50.4465 31.0156 48.8587 31.0156 46.9181ZM59.9645 41.1925H62.4664V52.5635H59.9645V41.1925ZM64.8882 41.1925H73.4686V43.4218H67.3741V45.7313H72.7308V47.9606H67.3741V50.3502H73.5488V52.5795H64.8882V41.1925ZM42.6112 41.1925V48.1851L37.2865 41.1925H33.8223L34.977 42.7161V52.5635H37.4469V45.4907L42.8357 52.5635H45.0811V41.1925H42.6112ZM55.137 41.1925V48.1851L49.8123 41.1925H46.3481L47.5028 42.7161V52.5635H49.9727V45.4907L55.3615 52.5635H57.6069V41.1925H55.137ZM77.5743 43.4538H80.0603C81.2792 43.4538 82.0169 43.9991 82.0169 45.0737V45.1058C82.0169 46.0681 81.3112 46.7096 80.1084 46.7096H77.5743L82.0329 52.5475H85.016L82.0009 48.586C83.5245 48.0407 84.567 46.8379 84.567 44.9614V44.9293C84.567 43.8548 84.2302 42.9727 83.5886 42.3312C82.8349 41.5774 81.7282 41.1764 80.2687 41.1764H75.0724V52.5475H77.5743V43.4538V43.4538Z" fill="white"/>
</g>
<defs>
<clipPath id="clip0">
<rect width="74" height="11.756" fill="white" transform="translate(11 41)"/>
</clipPath>
</defs>
</svg>
