<svg  viewBox="0 0 95 95" fill="none" xmlns="http://www.w3.org/2000/svg">
<g clip-path="url(#clip0_2227_34575)">
<rect width="95" height="95" fill="#E61428"/>
<path d="M61.6594 32.9685C59.3289 31.7145 56.665 31 53.8357 31H39.0779C38.2531 31 37.5842 31.669 37.5842 32.4938C37.5842 33.3186 38.2531 33.9875 39.0779 33.9875H53.6871C61.1751 33.9875 67.3635 39.9913 67.4067 47.4793C67.4499 54.9984 61.3453 61.1293 53.8357 61.1293H33.1676C32.3428 61.1293 31.6738 61.7983 31.6738 62.6231C31.6738 63.4479 32.3428 64.1168 33.1676 64.1168H53.8381C56.665 64.1168 59.3289 63.4023 61.6618 62.1483C66.8576 59.3502 70.399 53.8619 70.399 47.5584C70.399 41.2549 66.8576 35.7642 61.6618 32.9685H61.6594Z" fill="white"/>
<path d="M42.8506 41.5212C43.462 40.411 44.2389 39.404 45.1452 38.5312H26.0524C25.2276 38.5312 24.5586 39.2002 24.5586 40.025C24.5586 40.8498 25.2276 41.5188 26.0524 41.5188H42.8506V41.5212Z" fill="white"/>
<path d="M23 47.5582C23 48.383 23.669 49.052 24.4938 49.052H41.3927C41.3352 48.5604 41.3016 48.0641 41.3016 47.5582C41.3016 47.0523 41.3352 46.5536 41.3927 46.0645H24.4938C23.669 46.0645 23 46.7334 23 47.5582Z" fill="white"/>
<path d="M45.1452 56.5856C44.2389 55.7129 43.462 54.7058 42.8506 53.5957H26.0524C25.2276 53.5957 24.5586 54.2647 24.5586 55.0895C24.5586 55.9143 25.2276 56.5832 26.0524 56.5832H45.1452V56.5856Z" fill="white"/>
</g>
<defs>
<clipPath id="clip0_2227_34575">
<rect width="95" height="95" fill="white"/>
</clipPath>
</defs>
</svg>
