<svg xmlns="http://www.w3.org/2000/svg" viewBox="0 0 500 500"  preserveAspectRatio="xMidYMid slice" style="width: 100%; height: 100%; transform: translate3d(0px, 0px, 0px); content-visibility: visible;"><defs><clipPath id="__lottie_element_6517"><rect width="500" height="500" x="0" y="0"></rect></clipPath><mask id="__lottie_element_6520" mask-type="alpha"><g style="display: block;" transform="matrix(1,0,0,1,278.96636962890625,130.25440979003906)" opacity="1"><g opacity="1" transform="matrix(1,0,0,1,0,0)"><path fill="rgb(0,0,0)" fill-opacity="1" d=" M-2.7869999408721924,-35.55099868774414 C-5.6020002365112305,-34.53499984741211 -8.00100040435791,-33.137001037597656 -9.378999710083008,-30.215999603271484 C-11.880999565124512,-26.29199981689453 -11.666999816894531,-22.14900016784668 -9.630000114440918,-17.809999465942383 C-8.196999549865723,-14.61400032043457 -7.335999965667725,-11.114999771118164 -7.025000095367432,-7.560999870300293 C-6.604000091552734,-2.9049999713897705 -6.182000160217285,1.75 -5.267000198364258,6.446000099182129 C-4.110000133514404,12.45300006866455 -2.743000030517578,18.327999114990234 -1.8899999856948853,24.410999298095703 C-1.4819999933242798,27.375999450683594 -0.40799999237060547,30.097000122070312 0.8169999718666077,32.779998779296875 C1.3259999752044678,33.8650016784668 1.7979999780654907,34.797000885009766 3.4140000343322754,34.47999954223633 C4.021999835968018,34.33000183105469 5.580999851226807,34.106998443603516 5.955999851226807,35.62799835205078 C6.36899995803833,37.30099868774414 7.168000221252441,36.619998931884766 8.062999725341797,35.99599838256836 C8.958000183105469,35.37200164794922 8.82800006866455,34.516998291015625 8.944999694824219,33.68199920654297 C9.142999649047852,31.21299934387207 8.942999839782715,28.76099967956543 9.236000061035156,26.349000930786133 C9.819999694824219,22.172000885009766 10.21500015258789,17.878999710083008 10.647000312805176,13.73900032043457 C11.159000396728516,8.611000061035156 11.42300033569336,3.4639999866485596 10.984999656677246,-1.590999960899353 C10.326000213623047,-8.850000381469727 9.571000099182129,-16.167999267578125 8.817000389099121,-23.485000610351562 C8.522000312805176,-25.993999481201172 8.074999809265137,-28.46500015258789 7.076000213623047,-30.881000518798828 C6.078000068664551,-33.297000885009766 4.10699987411499,-34.749000549316406 2.193000078201294,-36.29399871826172 C0.7910000085830688,-37.4010009765625 -0.5830000042915344,-35.77199935913086 -1.9320000410079956,-35.680999755859375 C-2.178999900817871,-35.70100021362305 -2.4830000400543213,-35.625999450683594 -2.7869999408721924,-35.55099868774414z"></path></g></g></mask><mask id="__lottie_element_6526" mask-type="alpha"><g style="display: block;" transform="matrix(1,0,0,1,341.2313537597656,160.48541259765625)" opacity="1"><g opacity="1" transform="matrix(1,0,0,1,0,0)"><path fill="rgb(0,0,0)" fill-opacity="1" d=" M-21.36400032043457,25.83099937438965 C-21.27199935913086,26.31800079345703 -21.180999755859375,26.80500030517578 -21.06399917602539,27.690000534057617 C-21.06399917602539,27.690000534057617 -21.06399917602539,27.690000534057617 -21.06399917602539,27.690000534057617 C-14.26099967956543,21.26300048828125 -6.7170000076293945,16.360000610351562 0.7639999985694885,11.92300033569336 C6.502999782562256,8.67199993133545 11.595999717712402,4.938000202178955 16.040000915527344,0.16699999570846558 C18.988000869750977,-2.9100000858306885 21.35700035095215,-6.382999897003174 23.148000717163086,-10.25 C24.459999084472656,-12.918000221252441 24.79400062561035,-15.954999923706055 25.950000762939453,-18.643999099731445 C26.908000946044922,-21.042999267578125 27.225000381469727,-23.371999740600586 27.31999969482422,-25.809999465942383 C27.481000900268555,-28.159000396728516 26.85700035095215,-28.79800033569336 24.617000579833984,-29.18199920654297 C18.29400062561035,-30.357999801635742 12.725000381469727,-28.347999572753906 7.921000003814697,-24.416000366210938 C5.960000038146973,-22.78499984741211 4.111999988555908,-20.823999404907227 3.753000020980835,-18.184999465942383 C3.2880001068115234,-14.770000457763672 1.3980000019073486,-12.496999740600586 -0.6679999828338623,-10.09000015258789 C-3.305999994277954,-6.9710001945495605 -5.989999771118164,-4.09499979019165 -8.694999694824219,-1.062999963760376 C-11.883000373840332,2.614000082015991 -14.937000274658203,6.4679999351501465 -18.413999557495117,9.946999549865723 C-21.80299949645996,13.359999656677246 -24.902999877929688,16.969999313354492 -26.777999877929688,21.45800018310547 C-26.996000289916992,21.902000427246094 -27.635000228881836,22.527999877929688 -27.190000534057617,22.746000289916992 C-25.566999435424805,23.599000930786133 -26.490999221801758,24.58099937438965 -26.948999404907227,25.625 C-27.058000564575195,25.847999572753906 -27.05500030517578,26.400999069213867 -26.81100082397461,26.354999542236328 C-24.52899932861328,26.429000854492188 -25.889999389648438,28.298999786376953 -25.65999984741211,29.516000747680664 C-24.052000045776367,28.152999877929688 -23.06399917602539,26.70599937438965 -21.36400032043457,25.83099937438965z"></path></g></g></mask><mask id="__lottie_element_6532" mask-type="alpha"><g style="display: block;" transform="matrix(1,0,0,1,373.8133544921875,211.4134063720703)" opacity="1"><g opacity="1" transform="matrix(1,0,0,1,0,0)"><path fill="rgb(0,0,0)" fill-opacity="1" d=" M25.000999450683594,-7.941999912261963 C25.94700050354004,-8.861000061035156 26.77199935913086,-9.765999794006348 28.47100067138672,-10.092000007629395 C28.47100067138672,-10.092000007629395 28.47100067138672,-10.092000007629395 28.47100067138672,-10.092000007629395 C27.350000381469727,-10.642000198364258 26.775999069213867,-10.760000228881836 26.179000854492188,-10.5649995803833 C23.7549991607666,-10.588000297546387 21.277999877929688,-10.541999816894531 18.81399917602539,-10.37399959564209 C9.043000221252441,-9.524999618530273 -0.6690000295639038,-8.187000274658203 -10.25100040435791,-5.745999813079834 C-14.057000160217285,-4.860000133514404 -17.834999084472656,-3.7279999256134033 -21.724000930786133,-3.0179998874664307 C-24.211999893188477,-2.5360000133514404 -26.13800048828125,-1.5010000467300415 -27.56599998474121,0.5929999947547913 C-29.04800033569336,2.75600004196167 -28.707000732421875,4.578000068664551 -26.55900001525879,5.936999797821045 C-25.08099937438965,6.879000186920166 -23.510000228881836,7.561999797821045 -22.10099983215332,8.449999809265137 C-18.88599967956543,10.428000450134277 -15.449999809265137,11.137999534606934 -11.696999549865723,10.319999694824219 C-2.9140000343322754,8.470999717712402 5.6579999923706055,5.901000022888184 14.119000434875488,2.9100000858306885 C14.64799976348877,2.6610000133514404 15.5600004196167,2.492000102996826 15.692999839782715,2.0409998893737793 C16.253999710083008,0.48500001430511475 17.73699951171875,0.4320000112056732 18.933000564575195,0.041999999433755875 C19.408000946044922,-0.13899999856948853 20.072999954223633,-0.2800000011920929 20.16699981689453,-0.5389999747276306 C20.726999282836914,-2.0950000286102295 22.236000061035156,-2.4609999656677246 23.38800048828125,-3.2179999351501465 C25.069000244140625,-4.224999904632568 25.273000717163086,-6.173999786376953 26.76300048828125,-7.21999979019165 C26.816999435424805,-7.288000106811523 26.733999252319336,-7.464000225067139 26.7189998626709,-7.586999893188477 C26.131999969482422,-7.828000068664551 25.45599937438965,-7.250999927520752 25.000999450683594,-7.941999912261963z"></path></g></g></mask></defs><g clip-path="url(#__lottie_element_6517)"><g style="display: block;" transform="matrix(1,0,0,1,208.75234985351562,253.83241271972656)" opacity="1"><g opacity="1" transform="matrix(1,0,0,1,0,0)"><path fill="rgb(2,169,71)" fill-opacity="1" d=" M-73.90899658203125,10.520000457763672 C-73.90899658203125,10.520000457763672 -10.520000457763672,-73.90899658203125 -10.520000457763672,-73.90899658203125 C-10.520000457763672,-73.90899658203125 73.90899658203125,-10.520000457763672 73.90899658203125,-10.520000457763672 C73.90899658203125,-10.520000457763672 10.520000457763672,73.90899658203125 10.520000457763672,73.90899658203125 C10.520000457763672,73.90899658203125 -73.90899658203125,10.520000457763672 -73.90899658203125,10.520000457763672z M114.04100036621094,-16.23200035095215 C114.04100036621094,-16.23200035095215 -16.23200035095215,-114.04000091552734 -16.23200035095215,-114.04000091552734 C-16.23200035095215,-114.04000091552734 -114.04100036621094,16.23200035095215 -114.04100036621094,16.23200035095215 C-114.04100036621094,16.23200035095215 16.232999801635742,114.04000091552734 16.232999801635742,114.04000091552734 C16.232999801635742,114.04000091552734 114.04100036621094,-16.23200035095215 114.04100036621094,-16.23200035095215z"></path></g></g><g style="display: block;" transform="matrix(0.800000011920929,0,0,0.800000011920929,333.47332763671875,336.055419921875)" opacity="1"><g opacity="1" transform="matrix(1,0,0,1,0,0)"><path fill="rgb(76,47,146)" fill-opacity="1" d=" M-52.63199996948242,0 C-52.63199996948242,28.929000854492188 -28.929000854492188,52.63199996948242 0,52.63199996948242 C28.929000854492188,52.63199996948242 52.63199996948242,28.929000854492188 52.63199996948242,0 C52.63199996948242,-28.929000854492188 28.929000854492188,-52.63199996948242 0,-52.63199996948242 C-28.929000854492188,-52.63199996948242 -52.63199996948242,-28.929000854492188 -52.63199996948242,0z"></path></g></g><g style="display: block;" transform="matrix(0,0,0,0,163.4733428955078,186.05540466308594)" opacity="1"><g opacity="1" transform="matrix(1,0,0,1,0,0)"><path fill="rgb(76,47,146)" fill-opacity="1" d=" M-52.63199996948242,0 C-52.63199996948242,28.929000854492188 -28.929000854492188,52.63199996948242 0,52.63199996948242 C28.929000854492188,52.63199996948242 52.63199996948242,28.929000854492188 52.63199996948242,0 C52.63199996948242,-28.929000854492188 28.929000854492188,-52.63199996948242 0,-52.63199996948242 C-28.929000854492188,-52.63199996948242 -52.63199996948242,-28.929000854492188 -52.63199996948242,0z"></path></g></g><g mask="url(#__lottie_element_6532)" style="display: block;"><g transform="matrix(1,0,0,1,336.89935302734375,324.21942138671875)" opacity="1"><g opacity="1" transform="matrix(1,0,0,1,0,0)"><path stroke-linecap="round" stroke-linejoin="miter" fill-opacity="0" stroke-miterlimit="4" stroke="rgb(0,0,0)" stroke-opacity="1" stroke-width="55" d=" M-17.049999237060547,-100.76499938964844 C-4.960000038146973,-107.4530029296875 58.89500045776367,-110.94599914550781 85.83200073242188,-133.00799560546875"></path></g></g></g><g mask="url(#__lottie_element_6526)" style="display: block;"><g transform="matrix(1,0,0,1,311.89935302734375,279.21942138671875)" opacity="1"><g opacity="1" transform="matrix(1,0,0,1,0,0)"><path stroke-linecap="round" stroke-linejoin="miter" fill-opacity="0" stroke-miterlimit="4" stroke="rgb(0,0,0)" stroke-opacity="1" stroke-width="55" d=" M-10.585000038146973,-75.28099822998047 C-10.585000038146973,-75.28099822998047 55.566001892089844,-142.28799438476562 63.441001892089844,-165.3300018310547"></path></g></g></g><g mask="url(#__lottie_element_6520)" style="display: block;"><g transform="matrix(1,0,0,1,251.89935302734375,249.2194061279297)" opacity="1"><g opacity="1" transform="matrix(1,0,0,1,0,0)"><path stroke-linecap="round" stroke-linejoin="miter" fill-opacity="0" stroke-miterlimit="4" stroke="rgb(0,0,0)" stroke-opacity="1" stroke-width="55" d=" M35.5989990234375,-62.36399841308594 C35.5989990234375,-62.36399841308594 28.812999725341797,-94.29900360107422 30.023000717163086,-116.68099975585938 C31.232999801635742,-139.06300354003906 18.045000076293945,-171.89300537109375 18.045000076293945,-171.89300537109375"></path></g></g></g></g></svg>
