<svg viewBox="0 0 95 95" fill="none" xmlns="http://www.w3.org/2000/svg">
<rect width="95" height="95" fill="#4D2F93"/>
<rect x="37.3594" y="44.7441" width="36.7334" height="18.1734" transform="rotate(15.7645 37.3594 44.7441)" fill="#FFCF00"/>
<rect x="40.8008" y="42.5024" width="8.89334" height="4.25334" transform="rotate(15.7645 40.8008 42.5024)" fill="#FFCF00"/>
<rect x="51.5938" y="45.5488" width="8.89334" height="4.25334" transform="rotate(15.7645 51.5938 45.5488)" fill="#FFCF00"/>
<rect x="62.3828" y="48.5957" width="8.89334" height="4.25334" transform="rotate(15.7645 62.3828 48.5957)" fill="#FFCF00"/>
<path d="M36.4929 39.5677C36.3274 39.5629 36.2356 39.5653 36.1437 39.5677C36.2537 39.9048 36.4893 40.1282 36.6911 40.4628C36.4616 40.4689 36.1595 40.1645 36.0786 40.5801C36.0798 40.626 35.9784 40.6103 35.9409 40.5837C35.7633 40.469 35.6111 40.2709 35.4069 40.5427C35.3538 40.6176 35.2583 40.4823 35.1834 40.4292C34.4175 39.9533 33.8485 39.2793 33.3241 38.5581C32.7901 37.8189 32.1751 37.1461 31.5964 36.454C31.1216 35.8693 30.6746 35.2931 30.1816 34.7182C29.8023 34.2688 29.4422 33.8557 28.8309 33.6698C28.3586 33.5261 28.0541 33.1298 27.8137 32.7228C27.2361 31.7274 27.0331 30.6487 27.4352 29.5264C27.5717 29.1277 27.707 29.0323 28.1322 29.1313C28.5756 29.2206 28.9923 29.3474 29.4031 29.5938C29.861 29.8849 30.407 30.0358 30.8564 30.3547C31.5112 30.7968 32.0767 31.3331 32.5527 31.9636C33.2945 32.9179 33.8273 33.9604 34.2527 35.1067C34.8436 36.607 35.5178 38.1327 36.4929 39.5677Z" fill="#FFCF00"/>
<path d="M44.8168 20.1374C44.7263 20.5349 44.8435 20.7982 44.9522 21.0893C45.1443 21.0567 45.0839 20.8562 45.1914 20.7523C45.2192 20.7607 45.2651 20.7595 45.2747 20.7776C45.3593 21.198 45.7604 21.4263 45.8184 21.8841C45.8728 22.2042 45.8088 22.5642 46.0916 22.8324C46.1387 22.8771 46.1061 23.0341 46.1 23.1537C46.0711 23.4485 45.9419 23.7734 46.2246 24.0416C46.3091 24.1129 46.2596 24.3255 46.2633 24.4632C46.1077 26.5712 45.8506 28.6635 45.4183 30.7329C45.2396 31.6196 44.7613 32.2938 44.0305 32.8C43.7056 33.0199 43.4097 33.2942 43.0666 33.5237C42.5701 33.8584 42.1449 33.7594 41.8187 33.2351C41.5021 32.729 41.461 32.2156 41.5926 31.6333C41.8075 30.7273 41.921 29.8055 42.09 28.9007C42.4703 26.603 43.1007 24.3814 43.8421 22.1936C44.039 21.6463 44.2636 21.1075 44.4979 20.5868C44.5124 20.4395 44.5922 20.3271 44.8168 20.1374Z" fill="#FFCF00"/>
<path d="M20.447 47.1486C20.1123 46.6521 20.1171 46.1375 20.2221 45.5927C20.239 45.5371 20.2559 45.4815 20.2825 45.4441C20.396 45.2206 20.2668 44.8473 20.576 44.7289C21.0036 44.5706 21.4215 44.3942 21.9011 44.4642C22.3807 44.5342 22.8168 44.6972 23.2445 44.8881C24.4816 45.4617 25.7187 46.0354 26.9376 46.6187C27.7845 47.0282 28.5794 47.5584 29.3478 48.1261C29.9664 48.5875 30.6127 49.0574 31.2228 49.5465C31.5792 49.8219 31.9887 50.0224 32.3633 50.2882C32.4853 50.386 32.6339 50.4464 32.6484 50.6481C32.6629 50.8499 32.6956 51.0419 32.3899 50.9489C32.1121 50.8644 31.9997 51.1338 31.9659 51.2449C31.8633 51.5325 31.67 51.5192 31.4489 51.4975C30.9053 51.4383 30.3701 51.3514 29.8591 51.1352C28.8093 50.6944 27.7438 50.3551 26.6771 49.9698C25.8423 49.6703 25.0606 49.2959 24.279 48.9215C23.6834 48.6341 23.0444 48.4397 22.3993 48.3648C21.515 48.2779 20.8348 47.9193 20.447 47.1486Z" fill="#FFCF00"/>
</svg>
