<svg viewBox="0 0 95 95" fill="none" xmlns="http://www.w3.org/2000/svg">
<rect width="95" height="95" fill="#F4F4F4"/>
<g clip-path="url(#clip0_5899_6)">
<path d="M47.5 78.4C63.9 78.4 77.2 65.1 77.2 48.7C77.2 32.3 63.9 19 47.5 19C31.1 19 17.8 32.3 17.8 48.7C17.8 65.1 31.1 78.4 47.5 78.4Z" fill="#F0281E"/>
<path d="M43.7 46.3801C43.7 46.3801 41.45 50.3501 39.99 52.9401C38.93 54.8201 38.47 55.6501 37.35 55.6501C36.56 55.6501 35.77 55.2501 35.77 53.7801C35.77 52.3101 35.8 46.3701 35.8 46.3701H31.23V54.1301C31.23 58.7001 34.59 60.2101 37.33 60.2101C39.82 60.2101 41.45 59.0801 43.19 56.0401C43.94 54.7401 48.76 46.3701 48.76 46.3701H43.71L43.7 46.3801ZM46.67 60.1001H64.67V55.5301H49.27L46.68 60.1001H46.67Z" fill="white"/>
<path d="M60.09 37.2402H28.02V41.8102H60.1C61.36 41.8102 62.42 42.8002 62.42 44.0702C62.42 45.3402 61.37 46.3902 60.1 46.3902H54.34L51.69 50.9702H60.11C63.91 50.9702 67 47.8702 67 44.0802C67 40.2902 63.9 37.2502 60.11 37.2502L60.09 37.2402Z" fill="white"/>
</g>
<defs>
<clipPath id="clip0_5899_6">
<rect width="59.4" height="59.4" fill="white" transform="translate(17.8 19)"/>
</clipPath>
</defs>
</svg>
